<?xml version="1.0" standalone="no"?>
<!DOCTYPE svg PUBLIC "-//W3C//DTD SVG 20010904//EN"
 "http://www.w3.org/TR/2001/REC-SVG-20010904/DTD/svg10.dtd">
<svg version="1.0" xmlns="http://www.w3.org/2000/svg"
 width="174.000000pt" height="174.000000pt" viewBox="0 0 174.000000 174.000000"
 preserveAspectRatio="xMidYMid meet">
<metadata>
Created by potrace 1.11, written by Peter Selinger 2001-2013
</metadata>
<g transform="translate(0.000000,174.000000) scale(0.100000,-0.100000)"
fill="#000000" stroke="none">
<path d="M647 1451 c-26 -14 -47 -29 -47 -34 0 -4 43 -81 95 -172 52 -90 95
-171 95 -178 0 -24 -26 -40 -47 -29 -10 6 -61 85 -113 176 -52 91 -101 166
-107 166 -7 0 -13 -2 -13 -5 0 -3 41 -76 91 -162 50 -87 91 -162 92 -167 1 -6
-15 -10 -37 -11 l-39 0 -78 135 c-104 179 -95 167 -107 155 -6 -7 18 -56 69
-144 44 -73 79 -136 79 -140 0 -3 -70 -6 -156 -6 -96 0 -158 -3 -162 -10 -12
-18 -12 -104 0 -111 6 -4 98 -7 205 -7 177 1 194 0 203 -17 10 -18 4 -49 -9
-51 -3 -1 -96 -2 -205 -3 -150 -1 -200 -4 -204 -13 -3 -10 47 -13 230 -13
l233 0 23 -35 c12 -19 22 -36 22 -37 0 -2 -113 -3 -252 -4 -188 0 -253 -3
-256 -12 -3 -9 37 -12 163 -12 148 0 166 -2 161 -16 -3 -8 -37 -69 -76 -135
-38 -66 -70 -126 -70 -132 0 -7 23 -24 50 -39 l50 -28 23 38 c13 20 54 91 92
157 37 66 75 128 83 138 19 22 44 22 58 -1 10 -15 -6 -47 -91 -194 -72 -123
-99 -178 -90 -182 9 -3 29 23 57 72 146 256 252 438 258 445 4 5 17 -7 29 -26
l21 -35 -86 -148 c-48 -82 -98 -169 -112 -193 -14 -25 -39 -70 -57 -100 -31
-52 -35 -71 -16 -71 4 0 43 63 86 140 44 77 82 140 85 140 3 -1 34 -53 70
-116 36 -64 73 -127 83 -140 l19 -24 28 20 c15 11 32 20 38 20 5 0 15 6 21 14
10 12 -7 48 -87 187 -83 144 -98 176 -88 191 27 44 48 23 151 -157 55 -96 105
-173 110 -171 6 2 9 8 8 12 -1 9 -109 198 -258 454 -40 69 -84 145 -98 170
-14 25 -73 126 -130 225 l-106 180 27 22 c21 18 29 20 38 10 7 -6 143 -239
303 -516 160 -277 293 -506 295 -509 3 -2 9 -1 14 2 6 3 -26 68 -69 143 -43
76 -79 141 -79 145 0 4 73 9 163 10 l162 3 2 52 c1 32 -3 56 -10 60 -7 4 -97
8 -202 9 -104 1 -193 2 -196 3 -13 2 -19 33 -9 50 8 17 27 18 210 19 111 0
204 3 207 6 17 16 -25 20 -234 20 l-227 1 -24 35 -23 35 255 3 c141 1 256 6
256 11 0 15 -22 17 -177 16 -84 0 -153 3 -153 6 0 4 34 66 75 138 41 71 75
134 75 138 0 5 -21 21 -46 36 -39 24 -49 26 -60 15 -8 -8 -56 -85 -106 -173
-56 -95 -100 -159 -110 -161 -9 -1 -24 6 -32 15 -14 16 -7 32 84 190 55 95
100 177 100 182 0 25 -23 2 -58 -58 -22 -38 -66 -112 -97 -166 l-57 -99 -19
31 c-10 17 -19 36 -19 42 0 5 36 72 80 149 44 77 80 144 80 150 0 31 -27 -4
-96 -125 -42 -75 -79 -137 -83 -139 -3 -2 -40 56 -81 130 -41 73 -80 135 -86
138 -5 2 -31 -8 -57 -23z m601 -118 c15 -9 29 -18 31 -19 2 -2 -6 -18 -17 -36
-11 -18 -34 -59 -51 -91 -83 -151 -83 -151 -129 -152 -23 -1 -42 1 -42 3 0 5
174 311 178 312 1 0 15 -8 30 -17z m-400 -355 c11 -18 19 -35 17 -38 -2 -3
-133 -6 -291 -6 l-288 1 -2 38 -2 37 273 0 273 0 20 -32z m-66 -86 c8 -9 27
-39 43 -66 27 -47 27 -50 11 -82 -8 -19 -19 -34 -24 -34 -8 0 -112 176 -112
189 0 16 68 10 82 -7z m118 -1 c20 -39 -24 -75 -55 -44 -18 17 -18 19 -5 44
14 25 46 25 60 0z m556 -118 l-2 -38 -159 0 -158 0 -19 30 c-10 16 -18 33 -18
38 0 4 81 7 179 7 l179 0 -2 -37z m-758 -71 c-15 -40 -175 -302 -183 -302 -5
0 -20 8 -33 18 l-23 18 66 114 c99 171 90 160 136 160 22 0 39 -4 37 -8z m323
-215 l86 -151 -23 -18 c-12 -10 -27 -18 -32 -18 -10 0 -162 254 -162 272 0 13
33 68 40 68 3 -1 44 -69 91 -153z"/>
</g>
</svg>
