<svg width="38" height="24" viewBox="0 0 38 24" version="1.1" xmlns="http://www.w3.org/2000/svg" xmlns:xlink="http://www.w3.org/1999/xlink">
<title>Arrow</title>
<desc>Created using Figma</desc>
<g id="Canvas" transform="translate(-2277 -2550)">
<g id="Arrow">
<use xlink:href="#path0_stroke" transform="matrix(-1 1.22465e-16 -1.22465e-16 -1 2315 2562)" fill="#4F4F4F"/>
</g>
</g>
<defs>
<path id="path0_stroke" d="M 37.0607 1.06066C 37.6464 0.474874 37.6464 -0.474874 37.0607 -1.06066L 27.5147 -10.6066C 26.9289 -11.1924 25.9792 -11.1924 25.3934 -10.6066C 24.8076 -10.0208 24.8076 -9.07107 25.3934 -8.48528L 33.8787 0L 25.3934 8.48528C 24.8076 9.07107 24.8076 10.0208 25.3934 10.6066C 25.9792 11.1924 26.9289 11.1924 27.5147 10.6066L 37.0607 1.06066ZM 0 1.5L 36 1.5L 36 -1.5L 0 -1.5L 0 1.5Z"/>
</defs>
</svg>
